<?xml version="1.0" encoding="UTF-8"?>
<svg version="1.1" xmlns="http://www.w3.org/2000/svg" width="600" height="600">
<path d="M0 0 C1.24362305 0.17692383 2.48724609 0.35384766 3.76855469 0.53613281 C44.21767164 6.43093239 83.77384497 16.70664499 120 36 C120.97694824 36.50950195 120.97694824 36.50950195 121.97363281 37.02929688 C145.5712829 49.38613558 168.15778295 67.03725605 180.5 91.125 C180.81428955 91.73311523 181.1285791 92.34123047 181.45239258 92.96777344 C186.63880412 103.74687252 187.44045209 114.6735666 187.38768005 126.47140503 C187.39186071 128.00621368 187.39734221 129.54101923 187.40399987 131.07581913 C187.41837731 135.26312629 187.41423403 139.45023533 187.40683305 143.63755298 C187.4020845 148.165278 187.4146261 152.69296119 187.42485046 157.22067261 C187.4420108 166.07910154 187.44288422 174.93745945 187.43763756 183.79590069 C187.43358948 190.99897248 187.43504698 198.20202335 187.44038582 205.40509415 C187.44113424 206.43186053 187.44188266 207.45862691 187.44265376 208.51650742 C187.4441853 210.60265278 187.44572365 212.68879814 187.44726873 214.77494349 C187.46098376 234.32041726 187.45556308 253.86585095 187.44408352 273.4113238 C187.43415211 291.27462197 187.44709202 309.13781654 187.47101771 327.00109874 C187.49542674 345.36425852 187.50501215 363.7273701 187.49836498 382.09054577 C187.49487679 392.39162085 187.49707845 402.69261627 187.51461601 412.99367905 C187.52936053 421.76259928 187.52994403 430.53138378 187.5125451 439.30030142 C187.50405129 443.76994235 187.5018458 448.23934102 187.51719666 452.70896912 C187.53110219 456.80868449 187.52620601 460.90795139 187.50695742 465.00764121 C187.50321498 466.48262152 187.50606815 467.95763826 187.51656907 469.43258594 C187.64719529 489.20192979 181.1193789 506.15762574 168 521 C167.32324219 521.80824219 166.64648438 522.61648438 165.94921875 523.44921875 C126.38193469 569.52665923 57.32478007 585.95216309 0 594 C-1.13211914 594.16516113 -2.26423828 594.33032227 -3.43066406 594.50048828 C-42.85786099 599.99257981 -86.63118362 599.76428153 -126 594 C-127.24362305 593.82307617 -128.48724609 593.64615234 -129.76855469 593.46386719 C-170.21767164 587.56906761 -209.77384497 577.29335501 -246 558 C-246.65129883 557.66033203 -247.30259766 557.32066406 -247.97363281 556.97070312 C-271.5712829 544.61386442 -294.15778295 526.96274395 -306.5 502.875 C-306.81428955 502.26688477 -307.1285791 501.65876953 -307.45239258 501.03222656 C-312.63880412 490.25312748 -313.44045209 479.3264334 -313.38768005 467.52859497 C-313.39186071 465.99378632 -313.39734221 464.45898077 -313.40399987 462.92418087 C-313.41837731 458.73687371 -313.41423403 454.54976467 -313.40683305 450.36244702 C-313.4020845 445.834722 -313.4146261 441.30703881 -313.42485046 436.77932739 C-313.4420108 427.92089846 -313.44288422 419.06254055 -313.43763756 410.20409931 C-313.43358948 403.00102752 -313.43504698 395.79797665 -313.44038582 388.59490585 C-313.44113424 387.56813947 -313.44188266 386.54137309 -313.44265376 385.48349258 C-313.4441853 383.39734722 -313.44572365 381.31120186 -313.44726873 379.22505651 C-313.46098376 359.67958274 -313.45556308 340.13414905 -313.44408352 320.5886762 C-313.43415211 302.72537803 -313.44709202 284.86218346 -313.47101771 266.99890126 C-313.49542674 248.63574148 -313.50501215 230.2726299 -313.49836498 211.90945423 C-313.49487679 201.60837915 -313.49707845 191.30738373 -313.51461601 181.00632095 C-313.52936053 172.23740072 -313.52994403 163.46861622 -313.5125451 154.69969858 C-313.50405129 150.23005765 -313.5018458 145.76065898 -313.51719666 141.29103088 C-313.53110219 137.19131551 -313.52620601 133.09204861 -313.50695742 128.99235879 C-313.50321498 127.51737848 -313.50606815 126.04236174 -313.51656907 124.56741406 C-313.64719529 104.79807021 -307.1193789 87.84237426 -294 73 C-293.32324219 72.19175781 -292.64648438 71.38351563 -291.94921875 70.55078125 C-252.38193469 24.47334077 -183.32478007 8.04783691 -126 0 C-124.86788086 -0.16516113 -123.73576172 -0.33032227 -122.56933594 -0.50048828 C-83.14213901 -5.99257981 -39.36881638 -5.76428153 0 0 Z " fill="#6343C2" transform="translate(363,3)"/>
<path d="M0 0 C1.24362305 0.17692383 2.48724609 0.35384766 3.76855469 0.53613281 C44.21767164 6.43093239 83.77384497 16.70664499 120 36 C120.97694824 36.50950195 120.97694824 36.50950195 121.97363281 37.02929688 C149.57632274 51.48336269 173.89956069 72.3839775 185.15625 102.046875 C188.45382555 113.0998597 188.56337738 126.98592446 185 138 C184.731875 138.928125 184.46375 139.85625 184.1875 140.8125 C174.71350233 171.76089239 147.42276867 192.93252399 119.91455078 207.65087891 C68.46646096 234.22788915 8.76426305 246.19942919 -49 247 C-50.03318359 247.01514648 -51.06636719 247.03029297 -52.13085938 247.04589844 C-60.08908816 247.1418089 -68.0420932 247.10982869 -76 247 C-77.01368652 246.98743164 -78.02737305 246.97486328 -79.07177734 246.96191406 C-151.52281313 245.79507733 -235.48021778 228.31185494 -288.77734375 176.2890625 C-304.9361574 159.30861426 -313.61274367 139.77507927 -313.2734375 116.375 C-312.69537772 100.00617861 -304.6706854 85.07208873 -294 73 C-293.32324219 72.19175781 -292.64648438 71.38351563 -291.94921875 70.55078125 C-252.38193469 24.47334077 -183.32478007 8.04783691 -126 0 C-124.86788086 -0.16516113 -123.73576172 -0.33032227 -122.56933594 -0.50048828 C-83.14213901 -5.99257981 -39.36881638 -5.76428153 0 0 Z " fill="#8D6AF0" transform="translate(363,3)"/>
<path d="M0 0 C5.653083 1.20929353 10.4099727 4.87901991 15.21289062 7.96435547 C16.45129081 8.74098488 17.69089935 9.51569043 18.93164062 10.28857422 C21.50603968 11.89429311 24.07506428 13.50812992 26.640625 15.12792969 C31.96373761 18.48004923 37.34805911 21.73006174 42.73303223 24.98147583 C45.64591534 26.74177523 48.55414786 28.50972612 51.46289062 30.27685547 C52.62953538 30.9852249 53.79620204 31.69355824 54.96289062 32.40185547 C66.62955729 39.4851888 78.29622396 46.56852214 89.96289062 53.65185547 C90.54027481 54.00240997 91.117659 54.35296448 91.71253967 54.71414185 C92.88037682 55.42318619 94.04821333 56.13223161 95.21604919 56.84127808 C98.11480217 58.60124155 101.01356601 60.36118715 103.91235352 62.12109375 C109.37595896 65.43817421 114.83944978 68.75544307 120.30258179 72.07330322 C122.88096132 73.63918612 125.4593993 75.20497275 128.0378418 76.77075195 C129.26606114 77.5166348 130.4942519 78.26256472 131.72241211 79.00854492 C133.42619693 80.04341381 135.13008851 81.07810693 136.83398438 82.11279297 C138.28695923 82.99523682 138.28695923 82.99523682 139.76928711 83.89550781 C140.65817627 84.43385254 141.54706543 84.97219727 142.46289062 85.52685547 C143.33083252 86.07970215 144.19877441 86.63254883 145.09301758 87.20214844 C148.64600552 89.18819074 151.57415965 89.38423876 155.46289062 88.52685547 C159.75644241 86.61894833 163.70705392 84.22288693 167.71289062 81.77685547 C168.87676741 81.08317401 170.04157627 80.39105418 171.20727539 79.70043945 C173.54819942 78.30937459 175.88271354 76.90848296 178.21142578 75.49707031 C181.02190973 73.79406645 183.83924346 72.10374575 186.66210938 70.42138672 C189.85221733 68.51715068 193.03645022 66.60359697 196.21679688 64.68310547 C202.40422953 60.95218308 208.62063586 57.27029018 214.83789062 53.58935547 C215.41347717 53.24851929 215.98906372 52.90768311 216.58209229 52.55651855 C229.57941317 44.86085039 242.58391394 37.17731112 255.59179688 29.49951172 C256.45168213 28.99145996 257.31156738 28.4834082 258.19750977 27.95996094 C259.95710814 26.92161079 261.71801491 25.88547469 263.48022461 24.8515625 C268.52588478 21.88415631 273.54166075 18.87421456 278.52719116 15.80712891 C281.40827814 14.03759293 284.29768615 12.28189607 287.18780518 10.52716064 C288.60965714 9.65900231 290.02767878 8.78453621 291.44158936 7.90350342 C293.43654523 6.66127847 295.44394241 5.4418773 297.45507812 4.22607422 C298.04389771 3.85174759 298.63271729 3.47742096 299.23937988 3.0917511 C303.92590065 0.30454333 307.17007324 0.03455652 312.46289062 0.52685547 C315.27292523 2.32049458 316.9722953 3.54566482 318.46289062 6.52685547 C318.56939533 9.13524972 318.6151019 11.71745994 318.61679077 14.32649231 C318.62117303 15.1413838 318.62555528 15.9562753 318.63007033 16.79586047 C318.64348529 19.54188777 318.6496432 22.28788297 318.65576172 25.03393555 C318.66366049 26.99653774 318.6719293 28.95913848 318.68054199 30.92173767 C318.7067857 37.37993986 318.72207088 43.83814862 318.73632812 50.29638672 C318.74168663 52.51703076 318.74706414 54.73767476 318.75246048 56.95831871 C318.77409167 66.19298776 318.79282985 75.42765504 318.80408287 84.66234303 C318.82033154 97.9108536 318.853529 111.15907132 318.91048372 124.40747148 C318.94913861 133.71536863 318.96871022 143.0231873 318.97400343 152.33116263 C318.97766268 157.89429175 318.98974501 163.45710868 319.02210617 169.02015114 C319.05210876 174.25278406 319.0585265 179.48491462 319.04672241 184.71761513 C319.04650103 186.6393165 319.05485931 188.56104066 319.07237625 190.4826622 C319.09497716 193.10447327 319.08681602 195.72444871 319.07089233 198.3462677 C319.08477442 199.10852891 319.09865651 199.87079013 319.11295927 200.65615016 C319.05314185 204.64740031 318.62111468 206.33497325 316.0465641 209.45719433 C313.92734895 211.15479942 312.03603163 212.55816527 309.62695312 213.78076172 C308.90443359 214.15394531 308.18191406 214.52712891 307.4375 214.91162109 C306.66212891 215.30027344 305.88675781 215.68892578 305.08789062 216.08935547 C303.38212132 216.96557942 301.67639401 217.84188512 299.97070312 218.71826172 C299.07383789 219.17475098 298.17697266 219.63124023 297.25292969 220.1015625 C292.47241684 222.54369008 287.71981945 225.03919928 282.96289062 227.52685547 C281.02935859 228.53478638 279.09576512 229.54259943 277.16210938 230.55029297 C270.89896484 233.81792775 264.6474782 237.10754608 258.40039062 240.40576172 C257.67464844 240.78861328 256.94890625 241.17146484 256.20117188 241.56591797 C255.57251221 241.8980127 254.94385254 242.23010742 254.29614258 242.57226562 C253.69116943 242.88728027 253.08619629 243.20229492 252.46289062 243.52685547 C251.7708252 243.889646 251.07875977 244.25243652 250.36572266 244.6262207 C248.14635915 245.67667387 246.47389303 245.89221588 244.02539062 245.96435547 C243.28417969 246.00431641 242.54296875 246.04427734 241.77929688 246.08544922 C238.15339182 245.21107414 236.76673477 243.41619308 234.46289062 240.52685547 C233.98561643 237.48040721 233.81009974 234.99913525 233.86694336 231.96044922 C233.86288483 231.10943634 233.85882629 230.25842346 233.85464478 229.38162231 C233.84913568 227.5390115 233.8551132 225.69633818 233.87130547 223.85379028 C233.89672851 220.93633974 233.891927 218.02030181 233.87940979 215.1027832 C233.85866594 208.91065183 233.878347 202.71895801 233.90039062 196.52685547 C233.9214948 189.35060422 233.92606933 182.17480724 233.89988899 174.99856567 C233.89652735 172.12608044 233.91775247 169.25446246 233.94029236 166.38208008 C233.93778099 164.6191387 233.93422085 162.85619841 233.92944336 161.09326172 C233.94232895 160.29622833 233.95521454 159.49919495 233.9684906 158.67800903 C233.93447632 154.91343726 233.60970651 152.75607418 231.55873108 149.55395508 C229.08114229 147.15762799 228.15086827 146.59089904 224.72485352 146.27197266 C220.84564483 146.57508574 218.6507672 147.69322596 215.27148438 149.60498047 C214.69307297 149.92762375 214.11466156 150.25026703 213.51872253 150.58268738 C211.63883303 151.63530692 209.76974741 152.70566072 207.90039062 153.77685547 C206.59613027 154.51235891 205.29127404 155.24680662 203.98583984 155.98022461 C200.73589503 157.8101111 197.49458921 159.65470142 194.25592041 161.50445557 C191.64590336 162.99270813 189.02880959 164.46836208 186.41210938 165.94482422 C184.63690236 166.95050998 182.86213925 167.95697986 181.08789062 168.96435547 C180.24629395 169.44195312 179.40469727 169.91955078 178.53759766 170.41162109 C174.69475805 172.6101431 170.90772736 174.85509034 167.19335938 177.26513672 C155.05922987 185.11462852 155.05922987 185.11462852 149.11132812 184.44091797 C144.11934322 182.71802052 139.89668347 179.76682502 135.54101562 176.84716797 C129.16665892 172.60023304 122.5223223 168.80721601 115.90039062 164.96435547 C113.37348468 163.49708615 110.84727025 162.02864458 108.32226562 160.55810547 C107.71910522 160.20694672 107.11594482 159.85578796 106.49450684 159.49398804 C103.13777439 157.53164499 99.8204894 155.52183469 96.54101562 153.43310547 C95.52309937 152.7903064 95.52309937 152.7903064 94.48461914 152.13452148 C92.81585482 151.06991515 91.16008364 149.98501088 89.50585938 148.89794922 C85.32594301 147.01457227 83.03563482 146.91260625 78.46289062 147.52685547 C74.72996545 150.28723194 73.58239256 151.76308854 72.8572998 156.39733887 C72.84039107 157.93197794 72.85070797 159.46706845 72.8828125 161.00146484 C72.88036026 161.84272415 72.87790802 162.68398346 72.87538147 163.55073547 C72.87321323 165.37208534 72.88246338 167.19347698 72.90187073 169.01472473 C72.93193218 171.8985748 72.93090534 174.78094162 72.92175293 177.66491699 C72.9078339 183.78575107 72.93257978 189.90610139 72.96289062 196.02685547 C72.99801967 203.12056171 73.01727863 210.21354942 72.99476624 217.30732727 C72.99414854 220.1467446 73.0233338 222.98486486 73.05358887 225.82409668 C73.05151424 227.56681551 73.04804869 229.30953343 73.04296875 231.05224609 C73.06769005 232.23377007 73.06769005 232.23377007 73.09291077 233.43916321 C73.04810103 237.50610175 72.65141394 239.29486862 70.05163574 242.49401855 C66.83767689 245.01781055 64.76812458 246.01274969 60.62207031 245.93798828 C55.79540838 245.01893596 51.70581872 241.95589023 47.58789062 239.40185547 C45.44467877 238.11060052 43.30010301 236.82160715 41.15429688 235.53466797 C40.05230957 234.86983398 38.95032227 234.205 37.81494141 233.52001953 C32.44671224 230.32801495 26.9875787 227.30427907 21.52539062 224.27685547 C14.18184418 220.18400211 6.85087018 216.07391283 -0.41210938 211.83935547 C-1.10167725 211.44135742 -1.79124512 211.04335938 -2.50170898 210.63330078 C-9.96338766 206.24802062 -9.96338766 206.24802062 -11.53710938 201.52685547 C-11.63701045 198.9538846 -11.6805533 196.40790256 -11.67755127 193.83474731 C-11.68052239 193.04350271 -11.68349351 192.25225811 -11.68655467 191.4370364 C-11.69524899 188.77702406 -11.69675053 186.11705668 -11.69824219 183.45703125 C-11.7028698 181.55339461 -11.70789438 179.6497589 -11.71328735 177.74612427 C-11.72641778 172.56844573 -11.73285742 167.39078015 -11.73729801 162.21308756 C-11.74022735 158.9799256 -11.74433186 155.7467672 -11.74880219 152.51360703 C-11.76247803 142.40246157 -11.77214459 132.29132424 -11.77600408 122.18017018 C-11.78048695 110.49937456 -11.79804517 98.81869583 -11.82700467 87.13793576 C-11.84860131 78.1145148 -11.85870726 69.09112678 -11.86004519 60.06768024 C-11.86109455 54.67568082 -11.86703033 49.28379127 -11.88486481 43.891819 C-11.90131087 38.820952 -11.90351786 33.75027788 -11.8947258 28.67939377 C-11.8939536 26.81736994 -11.89832216 24.95533589 -11.90818405 23.09333801 C-11.92085078 20.55297105 -11.91505574 18.01329268 -11.90460205 15.47293091 C-11.91265846 14.73469751 -11.92071486 13.9964641 -11.9290154 13.23585999 C-11.88650093 8.82377357 -11.27063569 6.0221065 -8.53710938 2.52685547 C-5.47710777 0.4868544 -3.654826 -0.10725035 0 0 Z " fill="#FEFEFE" transform="translate(147.537109375,273.47314453125)"/>
<path d="M0 0 C2.08944302 0.30827848 4.18138575 0.56690169 6.27783203 0.82275391 C25.694152 3.40309799 45.08358728 9.49741597 62.05517578 19.30322266 C63.06451172 19.87814453 64.07384766 20.45306641 65.11376953 21.04541016 C77.43116217 28.45976301 88.61630728 38.57060823 92.60595703 52.87744141 C94.72335567 64.31139403 92.22304008 72.66808028 86.05517578 82.30322266 C67.84989564 107.54316445 32.39421181 116.51955995 3.38183594 121.3527832 C1.2754174 121.68970282 -0.83309807 122.00147694 -2.94482422 122.30322266 C-4.24419922 122.49013672 -5.54357422 122.67705078 -6.88232422 122.86962891 C-14.3662788 123.65872601 -21.9271466 123.54766844 -29.44482422 123.55322266 C-30.6756926 123.55423477 -30.6756926 123.55423477 -31.931427 123.55526733 C-71.23397226 123.50413135 -115.28140578 116.636136 -144.89404297 88.44775391 C-153.27523768 79.63022802 -157.53143379 69.00257023 -157.40966797 56.94775391 C-155.85274798 44.74097788 -147.34685149 34.44724726 -138.04248047 26.97119141 C-99.4737676 -1.01377083 -46.14429086 -6.89937007 0 0 Z " fill="#FEFEFE" transform="translate(332.94482421875,65.69677734375)"/>
</svg>
